<svg width="28" height="20" viewBox="0 0 28 20" fill="none" xmlns="http://www.w3.org/2000/svg">
              <path fill-rule="evenodd" clip-rule="evenodd"
                d="M11.6666 0C11.8597 0 12.0517 0.00466481 12.2423 0.0140133C12.2462 0.0142014 12.2494 0.0111404 12.2494 0.0072969C12.2494 0.00358419 12.2524 0.00057445 12.2562 0.00057445H22.9209C23.1487 0.000689825 23.3333 0.186733 23.3333 0.416475C23.3333 0.52678 23.2899 0.632575 23.2125 0.710595L20.4161 3.52941H26.3722C26.7708 3.52941 27.135 3.76478 27.2728 4.13878C27.7429 5.4145 28 6.7946 28 8.2353C28 14.7327 22.7766 20 16.3333 20C16.1404 20 15.9486 19.9948 15.7579 19.9855C15.7539 19.9853 15.7506 19.9884 15.7506 19.9924C15.7506 19.9963 15.7474 19.9995 15.7436 19.9995H5.0791C4.8513 19.9993 4.66667 19.8132 4.66667 19.5835C4.66668 19.4732 4.71011 19.3674 4.78744 19.2894L7.58275 16.4706H1.62781C1.22923 16.4706 0.86501 16.2352 0.7272 15.8612C0.257128 14.5855 0 13.2055 0 11.7647C0 5.26725 5.22335 0 11.6666 0ZM15.6588 8.3278C14.6959 7.1915 13.265 6.4706 11.6666 6.4706C8.76715 6.4706 6.41665 8.84085 6.41665 11.7647C6.41665 12.3836 6.5228 12.9774 6.7163 13.5294H10.4994L12.3412 11.6722C13.3041 12.8085 14.7349 13.5294 16.3333 13.5294C19.2328 13.5294 21.5833 11.1592 21.5833 8.2353C21.5833 7.6164 21.4772 7.02265 21.2837 6.4706H17.5005L15.6588 8.3278Z"
                fill="#B4BCC8" />
            </svg>