<svg width="212" height="37" viewBox="0 0 212 37" fill="none" xmlns="http://www.w3.org/2000/svg">
<path d="M31.8722 28.3591H42.8785L15.6138 1.21814H4.60742L31.8722 28.3591Z" fill="#3A424E"/>
<path d="M21.2686 1.21814L47.5513 27.3815V1.21814H40.4387V9.47841L32.1407 1.21814L21.2686 1.21814Z" fill="#0D1521"/>
<path d="M0 2.12674V28.359H7.11256V20.0987L15.4105 28.359H26.352L0 2.12674Z" fill="#0D1521"/>
<path d="M64.7146 24.278H71.0874V28.0164H59.8496V8.13513H64.7146V24.278Z" fill="#0D1521"/>
<path d="M79.7811 28.2431C78.2258 28.2431 76.8221 27.9127 75.5704 27.2517C74.3375 26.5909 73.3608 25.6469 72.64 24.4197C71.9383 23.1924 71.5874 21.7575 71.5874 20.1149C71.5874 18.4912 71.9477 17.0656 72.6685 15.8385C73.3893 14.5923 74.3755 13.6388 75.6272 12.978C76.8791 12.3172 78.2826 11.9868 79.8379 11.9868C81.3932 11.9868 82.7967 12.3172 84.0486 12.978C85.3004 13.6388 86.2866 14.5923 87.0074 15.8385C87.7282 17.0656 88.0884 18.4912 88.0884 20.1149C88.0884 21.7386 87.7187 23.1735 86.9789 24.4197C86.2582 25.6469 85.2624 26.5909 83.9916 27.2517C82.7398 27.9127 81.3362 28.2431 79.7811 28.2431ZM79.7811 24.0515C80.7104 24.0515 81.4976 23.7117 82.1424 23.032C82.8062 22.3523 83.1381 21.38 83.1381 20.1149C83.1381 18.8499 82.8157 17.8776 82.1709 17.1979C81.5449 16.5182 80.7673 16.1783 79.8379 16.1783C78.8896 16.1783 78.1024 16.5182 77.4766 17.1979C76.8506 17.8587 76.5377 18.8311 76.5377 20.1149C76.5377 21.38 76.8411 22.3523 77.4481 23.032C78.074 23.7117 78.8517 24.0515 79.7811 24.0515Z" fill="#0D1521"/>
<path d="M95.8474 11.9868C96.9664 11.9868 97.9433 12.2133 98.7778 12.6665C99.6313 13.1196 100.286 13.7144 100.741 14.4507V12.2133H105.606V27.9882C105.606 29.442 105.312 30.7541 104.724 31.9247C104.155 33.1142 103.273 34.0582 102.078 34.7568C100.902 35.4555 99.4321 35.8048 97.6682 35.8048C95.3163 35.8048 93.4102 35.2477 91.9498 34.1337C90.4893 33.0387 89.6548 31.5472 89.4461 29.6591H94.2542C94.4059 30.2633 94.7663 30.7352 95.3353 31.0751C95.9044 31.4338 96.606 31.6132 97.4407 31.6132C98.4459 31.6132 99.2424 31.3206 99.8305 30.7352C100.437 30.1688 100.741 29.2532 100.741 27.9882V25.7508C100.267 26.4871 99.6123 27.0913 98.7778 27.5634C97.9433 28.0164 96.9664 28.2431 95.8474 28.2431C94.5388 28.2431 93.3532 27.9127 92.2912 27.2517C91.229 26.572 90.3849 25.6187 89.7591 24.3914C89.1522 23.1453 88.8486 21.7104 88.8486 20.0866C88.8486 18.4629 89.1522 17.0374 89.7591 15.8101C90.3849 14.5829 91.229 13.6388 92.2912 12.978C93.3532 12.3172 94.5388 11.9868 95.8474 11.9868ZM100.741 20.1149C100.741 18.9066 100.399 17.9531 99.7167 17.2545C99.0529 16.5559 98.2372 16.2066 97.27 16.2066C96.3026 16.2066 95.4776 16.5559 94.7948 17.2545C94.1309 17.9342 93.799 18.8782 93.799 20.0866C93.799 21.295 94.1309 22.2578 94.7948 22.9754C95.4776 23.674 96.3026 24.0231 97.27 24.0231C98.2372 24.0231 99.0529 23.674 99.7167 22.9754C100.399 22.2767 100.741 21.3232 100.741 20.1149Z" fill="#0D1521"/>
<path d="M115.498 28.2431C113.943 28.2431 112.54 27.9127 111.288 27.2517C110.055 26.5909 109.078 25.6469 108.357 24.4197C107.656 23.1924 107.305 21.7575 107.305 20.1149C107.305 18.4912 107.665 17.0656 108.386 15.8385C109.107 14.5923 110.093 13.6388 111.345 12.978C112.596 12.3172 114 11.9868 115.555 11.9868C117.111 11.9868 118.514 12.3172 119.766 12.978C121.018 13.6388 122.004 14.5923 122.725 15.8385C123.445 17.0656 123.806 18.4912 123.806 20.1149C123.806 21.7386 123.436 23.1735 122.696 24.4197C121.976 25.6469 120.98 26.5909 119.709 27.2517C118.457 27.9127 117.054 28.2431 115.498 28.2431ZM115.498 24.0515C116.428 24.0515 117.215 23.7117 117.86 23.032C118.524 22.3523 118.856 21.38 118.856 20.1149C118.856 18.8499 118.533 17.8776 117.888 17.1979C117.262 16.5182 116.485 16.1783 115.555 16.1783C114.607 16.1783 113.82 16.5182 113.194 17.1979C112.568 17.8587 112.255 18.8311 112.255 20.1149C112.255 21.38 112.559 22.3523 113.165 23.032C113.791 23.7117 114.569 24.0515 115.498 24.0515Z" fill="#0D1521"/>
<path d="M127.98 10.5707C127.127 10.5707 126.425 10.3253 125.875 9.83437C125.344 9.32459 125.078 8.70154 125.078 7.96518C125.078 7.20996 125.344 6.58689 125.875 6.096C126.425 5.58622 127.127 5.33133 127.98 5.33133C128.815 5.33133 129.497 5.58622 130.028 6.096C130.578 6.58689 130.853 7.20996 130.853 7.96518C130.853 8.70154 130.578 9.32459 130.028 9.83437C129.497 10.3253 128.815 10.5707 127.98 10.5707ZM130.398 12.2133V28.0164H125.533V12.2133H130.398Z" fill="#0D1521"/>
<path d="M137.935 14.4507C138.41 13.7144 139.064 13.1196 139.898 12.6665C140.732 12.2133 141.71 11.9868 142.829 11.9868C144.138 11.9868 145.323 12.3172 146.385 12.978C147.447 13.6388 148.282 14.5829 148.889 15.8101C149.515 17.0374 149.828 18.4629 149.828 20.0866C149.828 21.7104 149.515 23.1453 148.889 24.3914C148.282 25.6187 147.447 26.572 146.385 27.2517C145.323 27.9127 144.138 28.2431 142.829 28.2431C141.729 28.2431 140.752 28.0164 139.898 27.5634C139.064 27.1102 138.41 26.5249 137.935 25.8074V35.5499H133.07V12.2133H137.935V14.4507ZM144.877 20.0866C144.877 18.8782 144.536 17.9342 143.853 17.2545C143.19 16.5559 142.364 16.2066 141.378 16.2066C140.41 16.2066 139.586 16.5559 138.903 17.2545C138.239 17.9531 137.907 18.9066 137.907 20.1148C137.907 21.3232 138.239 22.2767 138.903 22.9754C139.586 23.674 140.41 24.0231 141.378 24.0231C142.346 24.0231 143.17 23.674 143.853 22.9754C144.536 22.2578 144.877 21.295 144.877 20.0866Z" fill="#0D1521"/>
<path d="M157.984 28.2431C156.599 28.2431 155.367 28.0071 154.286 27.535C153.204 27.063 152.351 26.421 151.726 25.6092C151.1 24.7785 150.749 23.8532 150.673 22.8337H155.481C155.538 23.3813 155.794 23.825 156.25 24.1648C156.704 24.5047 157.264 24.6746 157.928 24.6746C158.535 24.6746 158.999 24.5613 159.322 24.3348C159.664 24.0893 159.834 23.7777 159.834 23.4002C159.834 22.947 159.596 22.6166 159.123 22.4088C158.648 22.1823 157.879 21.9369 156.818 21.6725C155.68 21.4082 154.731 21.1344 153.973 20.8513C153.214 20.5491 152.56 20.0866 152.01 19.4635C151.46 18.8216 151.185 17.9625 151.185 16.8863C151.185 15.98 151.431 15.1588 151.924 14.4223C152.436 13.6672 153.177 13.0724 154.143 12.6382C155.13 12.2039 156.296 11.9868 157.643 11.9868C159.635 11.9868 161.2 12.4777 162.337 13.4595C163.495 14.4412 164.158 15.7441 164.329 17.3678H159.834C159.757 16.8202 159.511 16.3859 159.094 16.065C158.696 15.7441 158.164 15.5836 157.501 15.5836C156.932 15.5836 156.496 15.6968 156.192 15.9234C155.889 16.131 155.737 16.4238 155.737 16.8013C155.737 17.2545 155.974 17.5943 156.448 17.8208C156.941 18.0475 157.701 18.274 158.725 18.5006C159.9 18.8027 160.858 19.1048 161.598 19.4069C162.337 19.69 162.983 20.1621 163.532 20.8229C164.102 21.4649 164.395 22.3333 164.414 23.4284C164.414 24.3537 164.149 25.1844 163.617 25.9207C163.105 26.6382 162.356 27.2046 161.371 27.62C160.403 28.0353 159.274 28.2431 157.984 28.2431Z" fill="#0D1521"/>
<path d="M182.212 12.2133V28.0164H177.347V25.8641C176.855 26.5627 176.181 27.1291 175.328 27.5634C174.494 27.9787 173.564 28.1863 172.54 28.1863C171.326 28.1863 170.254 27.9221 169.324 27.3934C168.395 26.8458 167.675 26.0623 167.163 25.0427C166.651 24.0231 166.395 22.8243 166.395 21.446V12.2133H171.231V20.7946C171.231 21.8519 171.506 22.6732 172.056 23.2585C172.606 23.8439 173.346 24.1365 174.275 24.1365C175.223 24.1365 175.972 23.8439 176.523 23.2585C177.073 22.6732 177.347 21.8519 177.347 20.7946V12.2133H182.212Z" fill="#0D1521"/>
<path d="M205.11 12.0434C207.083 12.0434 208.648 12.6382 209.804 13.8276C210.981 15.0171 211.569 16.6692 211.569 18.7838V28.0164H206.732V19.4351C206.732 18.4156 206.458 17.6322 205.907 17.0846C205.376 16.5182 204.637 16.2349 203.688 16.2349C202.74 16.2349 201.991 16.5182 201.44 17.0846C200.91 17.6322 200.644 18.4156 200.644 19.4351V28.0164H195.807V19.4351C195.807 18.4156 195.533 17.6322 194.982 17.0846C194.451 16.5182 193.712 16.2349 192.763 16.2349C191.815 16.2349 191.066 16.5182 190.515 17.0846C189.985 17.6322 189.719 18.4156 189.719 19.4351V28.0164H184.854V12.2134H189.719V14.1958C190.212 13.535 190.857 13.0158 191.654 12.6382C192.451 12.2417 193.351 12.0434 194.356 12.0434C195.551 12.0434 196.614 12.2983 197.543 12.8081C198.491 13.3179 199.231 14.0448 199.762 14.9888C200.313 14.1203 201.061 13.4123 202.01 12.8647C202.958 12.3172 203.992 12.0434 205.11 12.0434Z" fill="#0D1521"/>
</svg>
